<svg version="1.2" xmlns="http://www.w3.org/2000/svg" viewBox="0 0 560 560" width="560" height="560">
	<title>noun-bookstore-2821205-svg</title>
	<style>
		.s0 { fill: #000000 } 
	</style>
	<g id="Layer">
		<path id="Layer" fill-rule="evenodd" class="s0" d="m490.4 31.4v497.8c0 9.5-7.9 17.4-17.4 17.4h-392c-9.5 0-17.4-7.9-17.4-17.4v-497.8c0-9.6 7.9-17.4 17.4-17.4h392c9 0 16.8 7.8 17.4 17.4zm-392 315.8h357.2v-132.7h-357.2zm0-299.1v132.2h357.2v-132.2z"/>
		<path id="Layer" class="s0" d="m115.7 159v-77.2c0-2.3 1.7-4 3.9-4h19.6c2.3 0 4 1.7 4 4v77.2c0 2.3-1.7 4-4 4h-19.6c-2.2 0-3.9-1.7-3.9-4z"/>
		<path id="Layer" class="s0" d="m156.6 159v-77.2c0-2.3 1.7-4 3.9-4h19.6c2.3 0 3.9 1.7 3.9 4v77.2c0 2.3-1.6 4-3.9 4h-19.6c-2.2 0-3.9-1.7-3.9-4z"/>
		<path id="Layer" class="s0" d="m197.5 159v-77.2c0-2.3 1.7-4 3.9-4h19.6c2.2 0 3.9 1.7 3.9 4v77.2c0 2.3-1.7 4-3.9 4h-19.6c-2.2 0-3.9-1.7-3.9-4z"/>
		<path id="Layer" class="s0" d="m238.4 159v-77.2c0-2.3 1.6-4 3.9-4h19.6c2.2 0 3.9 1.7 3.9 4v77.2c0 2.3-1.7 4-3.9 4h-19.6c-2.3 0-3.9-1.7-3.9-4z"/>
		<path id="Layer" class="s0" d="m303.3 160.7l-28-72.2c-1.1-1.7 0-4.5 2.3-5.1l18.4-7.2c1.7-1.2 4.5 0 5.1 2.2l28 72.2c1.1 1.7 0 4.5-2.3 5.1l-18.4 7.3c-2.3 0.5-4.5-0.6-5.1-2.3z"/>
		<path id="Layer" class="s0" d="m347 160.7l-28-72.2c-1.1-1.7 0-4.5 2.2-5.1l18.5-7.2c1.7-1.2 4.5 0 5.1 2.2l28 72.2c1.1 1.7 0 4.5-2.3 5.1l-18.5 7.3c-2.2 0.5-4.4-0.6-5-2.3z"/>
		<path id="Layer" class="s0" d="m143.7 249.2v77.3c0 2.2-1.7 3.9-3.9 3.9h-19.6c-2.2 0-3.9-1.7-3.9-3.9v-77.3c0-2.2 1.7-3.9 3.9-3.9h19.6c2.2 0 3.9 1.7 3.9 3.9z"/>
		<path id="Layer" class="s0" d="m184.6 249.2v77.3c0 2.2-1.7 3.9-3.9 3.9h-19.6c-2.3 0-3.9-1.7-3.9-3.9v-77.3c0-2.2 1.6-3.9 3.9-3.9h19.6c2.2 0 3.9 1.7 3.9 3.9z"/>
		<path id="Layer" class="s0" d="m225.5 249.2v77.3c0 2.2-1.7 3.9-3.9 3.9h-19.6c-2.3 0-4-1.7-4-3.9v-77.3c0-2.2 1.7-3.9 4-3.9h19.6c2.2 0 3.9 1.7 3.9 3.9z"/>
		<path id="Layer" class="s0" d="m434.4 306.9v19.6c0 2.2-1.7 3.9-4 3.9h-77.2c-2.3 0-4-1.7-4-3.9v-19.6c0-2.3 1.7-3.9 4-3.9h77.2c2.3 0 4 1.6 4 3.9z"/>
		<path id="Layer" class="s0" d="m423.2 291.2h-77.3c-2.3 0-3.9-1.7-3.9-3.9v-19.6c0-2.3 1.6-3.9 3.9-3.9h77.3c2.2 0 3.9 1.6 3.9 3.9v19.6c0 2.2-1.7 3.9-3.9 3.9z"/>
		<path id="Layer" class="s0" d="m260.2 245.8l28 72.3c1.1 1.7 0 4.5-2.2 5l-18.5 7.3c-1.7 1.1-4.5 0-5.1-2.2l-28-72.3c-1.1-1.7 0-4.5 2.3-5l18.5-7.3c2.2-0.6 4.4 0 5 2.2z"/>
	</g>
</svg>